<?xml version="1.0" ?><svg viewBox="0 0 64 64" xmlns="http://www.w3.org/2000/svg"><title/><g data-name="Layer 2" id="Layer_2"><circle cx="32" cy="32" r="27.758" style="fill:#f9bf44"/></g><g data-name="Layer 1" id="Layer_1"><path d="M39.022,38.589a1,1,0,0,1-.3-.047,19.875,19.875,0,0,0-11.952,0,1,1,0,1,1-.605-1.906,21.9,21.9,0,0,1,13.163,0,1,1,0,0,1-.3,1.954Z" style="fill:#382a12"/><path d="M37.669,27a.987.987,0,0,1-.44-.1,1,1,0,0,1-.456-1.339,6.793,6.793,0,0,1,6.138-3.808,6.719,6.719,0,0,1,1.938.282,6.844,6.844,0,0,1,4.082,3.325,1,1,0,1,1-1.762.945,4.844,4.844,0,0,0-2.889-2.353,4.739,4.739,0,0,0-1.37-.2,4.8,4.8,0,0,0-4.343,2.692A1,1,0,0,1,37.669,27Z" style="fill:#382a12"/><path d="M15.679,22.583a.987.987,0,0,1-.44-.1,1,1,0,0,1-.456-1.339,6.838,6.838,0,0,1,12.151-.206,1,1,0,1,1-1.768.936,4.851,4.851,0,0,0-4.256-2.538,4.8,4.8,0,0,0-4.333,2.692A1,1,0,0,1,15.679,22.583Z" style="fill:#382a12"/><ellipse cx="21.746" cy="29.745" rx="2.5" ry="2.87" style="fill:#382a12"/><ellipse cx="43.741" cy="29.745" rx="2.5" ry="2.87" style="fill:#382a12"/></g></svg>