<svg width="32" height="32" viewBox="0 0 32 32" fill="none" xmlns="http://www.w3.org/2000/svg">
<path d="M18.6667 17.6667L13.3333 23L18.6667 28.3333" stroke="white"/>
<path d="M24.0829 8.99998C24.9517 10.5048 25.3832 12.2223 25.3288 13.9591C25.2743 15.6958 24.7361 17.3829 23.7748 18.8304C22.8134 20.2779 21.467 21.4282 19.8873 22.1519C18.3076 22.8756 16.5572 23.144 14.8332 22.9268" stroke="white" stroke-linecap="round"/>
<path d="M13.3333 12L18.6667 6.66667L13.3333 1.33333" stroke="white"/>
<path d="M7.91709 20.6667C7.03567 19.14 6.60463 17.3949 6.67387 15.6334C6.7431 13.872 7.30978 12.1661 8.30831 10.7133C9.30684 9.26054 10.6964 8.12026 12.3161 7.42446C13.9358 6.72866 15.7195 6.5058 17.4606 6.78167" stroke="white" stroke-linecap="round"/>
</svg>
